<?xml version="1.0" encoding="UTF-8" standalone="no"?><svg xmlns="http://www.w3.org/2000/svg" xmlns:xlink="http://www.w3.org/1999/xlink" contentScriptType="application/ecmascript" contentStyleType="text/css" height="228px" preserveAspectRatio="none" style="width:295px;height:228px;background:#FFFFFF;" version="1.1" viewBox="0 0 295 228" width="295px" zoomAndPan="magnify"><defs><filter height="300%" id="fcewddph8hkgj" width="300%" x="-1" y="-1"><feGaussianBlur result="blurOut" stdDeviation="2.0"/><feColorMatrix in="blurOut" result="blurOut2" type="matrix" values="0 0 0 0 0 0 0 0 0 0 0 0 0 0 0 0 0 0 .4 0"/><feOffset dx="4.0" dy="4.0" in="blurOut2" result="blurOut3"/><feBlend in="SourceGraphic" in2="blurOut3" mode="normal"/></filter></defs><g><!--MD5=[06a764555b0357cc210e184b5fa5231e]
class data--><rect codeLine="1" fill="#FEFECE" filter="url(#fcewddph8hkgj)" height="73.6094" id="data" style="stroke:#A80036;stroke-width:1.5;" width="114" x="84" y="7"/><ellipse cx="122.85" cy="23" fill="#A9DCDF" rx="11" ry="11" style="stroke:#A80036;stroke-width:1.0;"/><path d="M122.9594,18.3438 L121.8031,23.4219 L124.1313,23.4219 L122.9594,18.3438 Z M121.475,16.1094 L124.4594,16.1094 L127.8188,28.5 L125.3656,28.5 L124.6,25.4375 L121.3188,25.4375 L120.5688,28.5 L118.1313,28.5 L121.475,16.1094 Z " fill="#000000"/><text fill="#000000" font-family="sans-serif" font-size="12" font-style="italic" lengthAdjust="spacing" textLength="29" x="142.15" y="27.1543">data</text><line style="stroke:#A80036;stroke-width:1.5;" x1="85" x2="197" y1="39" y2="39"/><rect fill="none" height="6" style="stroke:#C82930;stroke-width:1.0;" width="6" x="92" y="47"/><text fill="#000000" font-family="sans-serif" font-size="11" font-style="italic" lengthAdjust="spacing" textLength="10" x="104" y="53.2104">id</text><line style="stroke:#A80036;stroke-width:1.5;" x1="85" x2="197" y1="59.8047" y2="59.8047"/><ellipse cx="95" cy="70.8047" fill="#84BE84" rx="3" ry="3" style="stroke:#038048;stroke-width:1.0;"/><text fill="#000000" font-family="sans-serif" font-size="11" font-style="italic" lengthAdjust="spacing" textLength="88" x="104" y="74.0151">data() : &lt;data&gt;</text><!--MD5=[c19365e253f9fe675ab6ccb712a58ce0]
class fixedData--><rect codeLine="6" fill="#FEFECE" filter="url(#fcewddph8hkgj)" height="73.6094" id="fixedData" style="stroke:#A80036;stroke-width:1.5;" width="114" x="7" y="141"/><ellipse cx="32.35" cy="157" fill="#ADD1B2" rx="11" ry="11" style="stroke:#A80036;stroke-width:1.0;"/><path d="M35.3188,162.6406 Q34.7406,162.9375 34.1,163.0781 Q33.4594,163.2344 32.7563,163.2344 Q30.2563,163.2344 28.9281,161.5938 Q27.6156,159.9375 27.6156,156.8125 Q27.6156,153.6875 28.9281,152.0313 Q30.2563,150.375 32.7563,150.375 Q33.4594,150.375 34.1,150.5313 Q34.7563,150.6875 35.3188,150.9844 L35.3188,153.7031 Q34.6938,153.125 34.1,152.8594 Q33.5063,152.5781 32.8813,152.5781 Q31.5375,152.5781 30.85,153.6563 Q30.1625,154.7188 30.1625,156.8125 Q30.1625,158.9063 30.85,159.9844 Q31.5375,161.0469 32.8813,161.0469 Q33.5063,161.0469 34.1,160.7813 Q34.6938,160.5 35.3188,159.9219 L35.3188,162.6406 Z " fill="#000000"/><text fill="#000000" font-family="sans-serif" font-size="12" lengthAdjust="spacing" textLength="59" x="48.65" y="161.1543">fixedData</text><line style="stroke:#A80036;stroke-width:1.5;" x1="8" x2="120" y1="173" y2="173"/><rect fill="none" height="6" style="stroke:#C82930;stroke-width:1.0;" width="6" x="15" y="181"/><text fill="#000000" font-family="sans-serif" font-size="11" lengthAdjust="spacing" textLength="10" x="27" y="187.2104">id</text><line style="stroke:#A80036;stroke-width:1.5;" x1="8" x2="120" y1="193.8047" y2="193.8047"/><ellipse cx="18" cy="204.8047" fill="#84BE84" rx="3" ry="3" style="stroke:#038048;stroke-width:1.0;"/><text fill="#000000" font-family="sans-serif" font-size="11" lengthAdjust="spacing" textLength="88" x="27" y="208.0151">data() : &lt;data&gt;</text><!--MD5=[a97d9b1135fa158de424a0f740ab7822]
class computedData--><rect codeLine="11" fill="#FEFECE" filter="url(#fcewddph8hkgj)" height="73.6094" id="computedData" style="stroke:#A80036;stroke-width:1.5;" width="125" x="156.5" y="141"/><ellipse cx="171.5" cy="157" fill="#ADD1B2" rx="11" ry="11" style="stroke:#A80036;stroke-width:1.0;"/><path d="M174.4688,162.6406 Q173.8906,162.9375 173.25,163.0781 Q172.6094,163.2344 171.9063,163.2344 Q169.4063,163.2344 168.0781,161.5938 Q166.7656,159.9375 166.7656,156.8125 Q166.7656,153.6875 168.0781,152.0313 Q169.4063,150.375 171.9063,150.375 Q172.6094,150.375 173.25,150.5313 Q173.9063,150.6875 174.4688,150.9844 L174.4688,153.7031 Q173.8438,153.125 173.25,152.8594 Q172.6563,152.5781 172.0313,152.5781 Q170.6875,152.5781 170,153.6563 Q169.3125,154.7188 169.3125,156.8125 Q169.3125,158.9063 170,159.9844 Q170.6875,161.0469 172.0313,161.0469 Q172.6563,161.0469 173.25,160.7813 Q173.8438,160.5 174.4688,159.9219 L174.4688,162.6406 Z " fill="#000000"/><text fill="#000000" font-family="sans-serif" font-size="12" lengthAdjust="spacing" textLength="93" x="185.5" y="161.1543">computedData</text><line style="stroke:#A80036;stroke-width:1.5;" x1="157.5" x2="280.5" y1="173" y2="173"/><rect fill="none" height="6" style="stroke:#C82930;stroke-width:1.0;" width="6" x="164.5" y="181"/><text fill="#000000" font-family="sans-serif" font-size="11" lengthAdjust="spacing" textLength="10" x="176.5" y="187.2104">id</text><line style="stroke:#A80036;stroke-width:1.5;" x1="157.5" x2="280.5" y1="193.8047" y2="193.8047"/><ellipse cx="167.5" cy="204.8047" fill="#84BE84" rx="3" ry="3" style="stroke:#038048;stroke-width:1.0;"/><text fill="#000000" font-family="sans-serif" font-size="11" lengthAdjust="spacing" textLength="88" x="176.5" y="208.0151">data() : &lt;data&gt;</text><!--MD5=[3dd2eeac2c361a9f4e32dd60d9bfadd3]
reverse link data to fixedData--><path codeLine="16" d="M109.78,98.51 C101.45,112.79 92.65,127.88 85.02,140.97 " fill="none" id="data-backto-fixedData" style="stroke:#A80036;stroke-width:1.0;"/><polygon fill="none" points="103.84,94.82,119.96,81.07,115.93,101.87,103.84,94.82" style="stroke:#A80036;stroke-width:1.0;"/><!--MD5=[d08d3f040c30212ba53fc056e261a532]
reverse link data to computedData--><path codeLine="17" d="M172.62,98.51 C181.06,112.79 189.98,127.88 197.71,140.97 " fill="none" id="data-backto-computedData" style="stroke:#A80036;stroke-width:1.0;"/><polygon fill="none" points="166.46,101.85,162.31,81.07,178.51,94.73,166.46,101.85" style="stroke:#A80036;stroke-width:1.0;"/><!--MD5=[2fead139afc1706237b74bc86a097e38]
@startuml
abstract data {
	{abstract} -id
	{abstract} +data() : <data>
}

class fixedData {
	-id
	+data() : <data>
}

class computedData {
	-id
	+data() : <data>
}

data <|- - fixedData
data <|- - computedData
@enduml

PlantUML version 1.2021.15(Wed Dec 01 05:45:34 NZDT 2021)
(GPL source distribution)
Java Runtime: OpenJDK Runtime Environment
JVM: OpenJDK 64-Bit Server VM
Default Encoding: UTF-8
Language: en
Country: NZ
--></g></svg>